PathFileType	4	(X/Y/Z)	c:/Users/goper/Files/vsCode/490R/osim_files/C03/C03_Slow_04.trc
DataRate	CameraRate	NumFrames	NumMarkers	Units                	OrigDataRate	OrigDataStartFrame	OrigNumFrames
250.00	250.00	6	36	mm	250.0	2272	3028
                Frame#	Time	LPSIS			LASIS			LTH1			LTH2			LTH3			LTH4			LLFE			LMFE			LSH1			LSH2			LSH3			LSH4			LLMAL			LMMAL			LCAL			LMTP5			LTOE			LMTP1			RPSIS			RASIS			RTH1			RTH2			RTH3			RTH4			RLFE			RMFE			RSH1			RSH2			RSH3			RSH4			RLMAL			RMMAL			RCAL			RMTP1			RTOE			RMTP5		
		X1	Y1	Z1	X2	Y2	Z2	X3	Y3	Z3	X4	Y4	Z4	X5	Y5	Z5	X6	Y6	Z6	X7	Y7	Z7	X8	Y8	Z8	X9	Y9	Z9	X10	Y10	Z10	X11	Y11	Z11	X12	Y12	Z12	X13	Y13	Z13	X14	Y14	Z14	X15	Y15	Z15	X16	Y16	Z16	X17	Y17	Z17	X18	Y18	Z18	X19	Y19	Z19	X20	Y20	Z20	X21	Y21	Z21	X22	Y22	Z22	X23	Y23	Z23	X24	Y24	Z24	X25	Y25	Z25	X26	Y26	Z26	X27	Y27	Z27	X28	Y28	Z28	X29	Y29	Z29	X30	Y30	Z30	X31	Y31	Z31	X32	Y32	Z32	X33	Y33	Z33	X34	Y34	Z34	X35	Y35	Z35	X36	Y36	Z36

2272	9.08400	-2439.84717	1037.09302	291.37354	-2617.19873	975.60553	333.50253	-2460.60034	637.21222	373.73657	-2457.52246	575.16125	363.85440	-2534.71680	629.59082	360.74228	-2521.57910	569.66974	351.54843	-2466.37866	488.02792	346.03607	-2452.28125	487.88568	235.03119	-2380.10376	311.81976	350.74582	-2380.19897	265.32858	343.94324	-2440.88940	308.61972	349.83008	-2431.83716	261.76929	343.51276	-2403.36255	103.97903	311.33325	-2415.65723	114.47481	231.52536	-2329.66138	70.55828	285.70920	-2536.27026	51.31180	324.42477	-2562.90405	65.26882	267.78311	-2536.49072	53.15291	230.31053	-2445.46655	1027.39978	178.78574	-2617.05981	988.20660	128.73158	-2642.37964	609.82007	110.60069	-2670.27686	554.62018	123.32127	-2696.02515	638.19214	83.79771	-2735.81592	589.37378	88.92794	-2749.66675	521.24823	103.58951	-2755.04761	535.72699	215.76382	-2636.68994	348.76633	117.31331	-2635.44849	300.22061	119.16095	-2692.69287	335.68204	91.33485	-2681.72559	293.81384	95.68254	-2655.27393	142.88722	121.47210	-2693.96997	137.80130	191.70259	-2594.25195	110.47707	178.26291	-2798.18701	60.03428	152.00636	0.00000	0.00000	0.00000	-2740.74976	62.29897	62.04145
2273	9.08800	-2443.91284	1036.72546	290.83130	-2620.93555	975.13147	333.35074	-2463.16016	637.18066	373.37445	-2459.84546	575.02179	363.64093	-2537.22852	629.38849	360.53040	-2523.86865	569.46655	351.27866	-2468.55444	488.08109	345.82040	-2454.48584	487.87888	234.69044	-2381.40527	312.09467	350.77112	-2381.05225	265.65970	343.48557	-2440.97534	307.64755	349.40131	-2432.76562	261.88373	343.31393	-2403.55591	104.17780	311.13293	-2415.93481	114.61004	231.34230	-2329.80469	70.69846	285.62082	-2536.55444	51.15765	324.57748	-2562.96216	65.12469	267.79480	-2536.54004	53.08811	230.31969	-2449.64941	1027.03381	178.29616	-2621.39600	987.84448	128.55742	-2646.19849	609.26605	110.51856	-2673.99829	554.01538	123.22638	-2699.98828	637.64386	84.09869	-2739.68115	588.64630	89.14652	-2754.52832	520.82617	103.91753	-2760.03589	535.91931	216.76639	-2645.74683	345.42654	116.81183	-2644.97705	297.03833	118.31812	-2701.58862	333.96921	90.94109	-2691.67676	291.88797	95.23235	-2668.96533	140.24809	120.76212	-2707.72290	135.91754	190.92375	-2608.73511	106.43179	177.59111	-2813.60986	60.41048	150.84258	0.00000	0.00000	0.00000	-2756.18921	61.62976	60.89745
2274	9.09200	-2448.03687	1036.46216	290.26611	-2624.89771	974.63019	333.19543	-2465.54907	637.23907	372.95630	-2462.38379	575.14124	363.29437	-2539.85498	629.17102	360.29752	-2527.47095	569.93774	351.79391	-2470.32715	488.07254	345.47128	-2456.70532	487.90643	234.42876	-2382.64111	312.40479	350.44077	-2381.89111	266.08133	343.25977	-2443.47729	308.83221	349.80945	-2433.61182	262.04242	343.16000	-2403.79126	104.39560	310.93237	-2416.24219	114.72543	231.15399	-2329.91357	70.89648	285.51459	-2535.87793	51.28282	324.18839	-2563.36914	64.59127	267.94547	-2536.63501	53.01319	230.30316	-2453.68677	1026.58826	177.80441	-2625.61719	987.45441	128.33733	-2649.88110	608.47827	110.70697	-2677.61938	553.09521	123.37822	-2706.43823	638.11798	83.64454	-2743.43994	587.80792	89.32462	-2758.81860	520.24622	104.11686	-2762.39038	534.25122	216.38670	-2654.17969	341.65131	116.71151	-2655.27515	293.80988	117.69294	-2710.49805	332.36035	90.51318	-2702.12915	289.93021	94.82053	-2678.59521	139.80412	119.88795	-2721.51709	134.34753	190.14786	-2622.36157	102.78986	176.90027	-2828.99268	61.01572	149.79340	0.00000	0.00000	0.00000	-2771.78247	61.13406	59.87490
2275	9.09600	-2452.09106	1036.17944	289.60855	-2628.73560	974.18781	333.00317	-2468.16162	637.36401	372.58124	-2464.82227	575.36884	362.94315	-2542.46680	628.99786	360.05276	-2528.60498	569.13678	350.92148	-2472.31885	488.05478	345.19501	-2458.99023	487.85504	234.13397	-2383.65991	312.81149	350.11435	-2382.92603	266.49481	342.97369	-2445.23242	309.46820	349.61356	-2434.54785	262.15088	342.92950	-2403.98193	104.67758	310.55511	-2416.59912	114.87719	230.93007	-2329.98755	71.14422	285.37354	-2535.93628	51.23258	324.05661	-2563.16943	64.94295	267.85727	-2537.11401	52.84715	230.64079	-2457.95239	1026.46387	177.03166	-2630.04224	987.02008	128.16280	-2653.61230	607.70355	110.64677	-2681.17505	552.35944	123.13818	-2707.76001	635.99713	84.12073	-2747.07446	586.90277	89.45500	-2763.04761	519.59821	104.27343	-2765.94019	533.42401	216.62550	-2662.71118	338.60104	116.06876	-2664.45410	291.00055	116.86192	-2719.30737	330.78287	90.08088	-2711.49854	288.11252	94.19108	-2695.96655	135.50197	119.00816	-2735.15332	132.93590	189.38968	-2637.29321	98.96946	176.32770	-2844.23340	61.96960	148.70792	0.00000	0.00000	0.00000	-2786.45093	60.83926	58.99543
2276	9.10000	-2456.10962	1035.83130	288.94989	-2632.69092	973.76288	332.86761	-2470.82715	637.43243	372.34555	-2467.14673	575.40497	362.68900	-2544.98291	628.75366	359.86774	-2530.94092	568.97827	350.70370	-2474.33643	488.09137	344.97787	-2461.23364	487.88736	233.82877	-2384.87695	313.21008	349.73993	-2383.75757	266.86252	342.64325	-2445.25171	308.98071	348.97900	-2435.45874	262.40317	342.75381	-2404.16040	104.97462	310.38611	-2416.97070	115.07259	230.75349	-2330.11377	71.39545	285.21213	-2535.98486	51.23188	324.06601	-2563.23755	64.84100	267.85715	-2537.14453	52.60910	230.79265	-2461.65552	1026.06970	176.46692	-2634.34448	986.46991	128.00011	-2657.16748	606.90155	110.64159	-2684.61353	551.36725	123.32349	-2711.43188	635.24316	84.51750	-2750.74390	585.89685	89.61084	-2766.80591	518.94794	104.33006	-2770.62549	533.30566	217.46188	-2671.23242	335.75070	115.33023	-2673.94458	288.03308	116.14562	-2728.02417	329.36142	89.58008	-2721.29224	286.51550	93.63828	-2709.38232	133.13675	117.85557	-2748.72363	131.72389	188.63431	-2651.93774	95.41367	175.68584	-2859.44531	63.21502	147.77400	0.00000	0.00000	0.00000	-2801.14087	60.78046	58.10605
2277	9.10400	-2460.10132	1035.50000	288.22955	-2636.63770	973.27173	332.66147	-2473.27734	637.38641	372.02887	-2469.46143	575.48816	362.43890	-2547.55103	628.62280	359.76389	-2533.31763	568.86768	350.52670	-2476.28003	488.16879	344.64148	-2463.54248	487.87878	233.56818	-2385.93579	313.59705	349.39975	-2384.78198	267.26309	342.38660	-2446.37451	309.09735	348.72876	-2436.26953	262.54413	342.49463	-2404.29346	105.25898	310.19009	-2417.29395	115.28966	230.55376	-2330.18066	71.66827	285.02496	-2536.02954	51.26241	324.02890	-2563.30444	64.79758	267.88062	-2537.29175	52.55244	230.70686	-2466.48584	1025.57300	175.78061	-2638.71851	985.96436	127.74138	-2660.71484	605.96082	110.72568	-2687.99927	550.47089	123.18139	-2715.12720	634.17725	84.38384	-2754.31567	584.86597	89.71784	-2770.90845	518.25830	104.39448	-2772.87817	531.51477	217.01147	-2679.61377	332.90701	114.64654	-2683.77686	285.24377	115.35484	-2736.69067	328.01352	89.14030	-2730.96802	284.96613	93.03868	-2722.32983	131.46854	117.04659	-2761.79419	130.63199	187.85513	-2666.16211	92.12806	174.92194	-2874.41479	64.74836	146.96204	0.00000	0.00000	0.00000	-2816.14795	60.84491	57.32427
